<?xml version="1.0" encoding="UTF-8"?><svg id="Capa_2" xmlns="http://www.w3.org/2000/svg" viewBox="0 0 833.68 183.17"><defs><style>.cls-1{stroke-width:0px;}</style></defs><g id="Capa_1-2"><path class="cls-1" d="m552.89,80.91c-.08-.03-.17-.03-.25-.03l-29.03.85c-.13,0-.26-.02-.38-.08l-5.24-3.92c-.11-.05-.23-.08-.36-.08h-12.62c-.16,0-.32.05-.46.14l-4.06,4.28c-.14.1-.3.15-.47.14-3.99-.04-53.4-.53-64.23-3.18-.04,0-.07-.02-.1-.03L231.26.06c-.87-.34-1.53.83-.79,1.39,19.91,15.28,55.47,46.55,57.87,48.67.08.07.18.13.29.16l43.49,13.62c.82.26.73,1.44-.12,1.57l-18.66,2.83c-.69.1-.93.97-.4,1.42,11.86,9.86,31.39,25.73,33.68,27.6.15.12.33.18.51.18l27.88-.15c.89,0,1.13,1.21.32,1.55l-18.3,7.64c-.59.24-.67,1.04-.16,1.41l7.49,5.29c.16.11.25.26.3.42l.05.03c.11.41-.11.89-.59,1l-51.86,12.02c-.91.21-.26,3.58.67,3.64l82,4.62c.07,0,.13.02.2.04l.11.07s.06.01.08.03l5.58,3.94c.14.1.3.15.47.15h0s.02,0,.03,0c.41,0,1.31,0,2.59,0,10.26,0,45.03-.02,54.76.05.14,0,.27-.07.39-.15l40.66-30.75c.23-.17.53-.2.79-.09l4.04,3.91c.1.04.21.07.32.07l12.69-.03c.14,0,.27-.03.39-.1l5.24-3.86c.11-.06.24-.1.37-.1l47.72-.13c.43-.01.79.32.83.74l.29,4.13c.03.36.29.67.64.73,2.41.38,4.13.1,5.05,0,.41-.04.72-.49.72-.9v-13.02c0-.25-.11-.48-.31-.63-2.65-2.08-21.64-16.88-25.68-18.16Z"/><path class="cls-1" d="m604.44,12.38c-14.29,4.49-70.51,22.44-86.46,32.17-.44.27,6.64,1.72,11.95,2.75.92.18.85,1.51-.08,1.6l-26.92,2.45c-.08,0-.17.03-.25.06l-48.32,21.47c-.81.35-.56,1.55.32,1.55h45.79l4.24-4.01h13.28l5.4,4.01h7.74c.18,0,.35-.06.5-.17,3.61-2.81,51.04-39.71,60.02-47.64l13.59-12.88c.62-.59.02-1.62-.8-1.36Z"/><path class="cls-1" d="m220.94,13.32l-12.2-10.16c-.28-.23-.69-.25-.99-.04l-42.81,30.35c-.16.11-.35.16-.54.15l-1.44-.13c-.15-.01-.29-.07-.41-.15l-9.85-7.19c-.14-.1-.31-.16-.48-.16h-1.77c-.21,0-.42.09-.57.25L.25,176.79c-.73.73.31,1.86,1.1,1.19L147.83,53.12c.29-.24.7-.26,1.01-.03l13.77,10.25c.16.12.35.17.54.16l.86-.06c.14-.01.27-.06.38-.13l50.51-33.19c.23-.15.52-.17.77-.06l46,20.22c.85.37,1.56-.75.85-1.35l-41.58-35.58Z"/><path class="cls-1" d="m833.42,181.76L623.53,18.71c-.32-.3-.82-.28-1.13.03l-20.56,21.01c-.37.38-.28,1,.17,1.26l20.25,11.87s.03.02.04.02l7.93,5.29s.03.02.04.03l202.11,124.78c.15.12.34.17.53.17.72-.03,1.04-.92.51-1.4Z"/></g></svg>